<svg xmlns="http://www.w3.org/2000/svg" width="500" height="500" viewBox="0 0 500 500"><rect width="100%" height="100%" fill="#EEE"/><path fill="#31343C" d="M110.065 239.045v10.81h2.54q3.56 0 5.33-1.41 1.76-1.41 1.76-4.1 0-2.71-1.48-4.01-1.48-1.29-4.64-1.29h-3.51Zm17.43 5.03q0 5.88-3.67 8.99-3.68 3.11-10.45 3.11h-3.31v12.95h-7.72v-36.41h11.63q6.62 0 10.07 2.85 3.45 2.86 3.45 8.51Zm13.87-13.7v38.75h-7.6v-38.75h7.6Zm30.95 38.75h-5.3l-1.47-3.79h-.2q-1.92 2.42-3.95 3.35-2.03.94-5.29.94-4.01 0-6.31-2.29t-2.3-6.53q0-4.43 3.1-6.53 3.1-2.11 9.35-2.33l4.83-.15v-1.22q0-4.24-4.34-4.24-3.33 0-7.84 2.02l-2.52-5.13q4.81-2.51 10.66-2.51 5.61 0 8.59 2.44 2.99 2.44 2.99 7.42v18.55Zm-7.54-10.61v-2.29l-2.94.1q-3.31.1-4.93 1.2-1.62 1.09-1.62 3.33 0 3.21 3.69 3.21 2.63 0 4.22-1.51 1.58-1.52 1.58-4.04Zm26.67 11.11q-13 0-13-14.27 0-7.1 3.53-10.85 3.54-3.74 10.14-3.74 4.83 0 8.67 1.89l-2.25 5.88q-1.79-.73-3.33-1.19-1.55-.46-3.09-.46-5.93 0-5.93 8.42 0 8.17 5.93 8.17 2.19 0 4.06-.59 1.87-.58 3.73-1.83v6.5q-1.84 1.17-3.72 1.62-1.88.45-4.74.45Zm26.44-23.46q-2.41 0-3.78 1.53-1.37 1.53-1.57 4.35h10.66q-.05-2.82-1.47-4.35-1.42-1.53-3.84-1.53Zm1.07 23.46q-6.72 0-10.5-3.71-3.79-3.71-3.79-10.51 0-7 3.5-10.82 3.5-3.82 9.67-3.82 5.91 0 9.19 3.36 3.29 3.36 3.29 9.29v3.68h-17.95q.12 3.24 1.91 5.06 1.8 1.82 5.03 1.82 2.52 0 4.76-.53 2.24-.52 4.68-1.67v5.88q-1.99 1-4.26 1.48-2.26.49-5.53.49Zm43.24-18.65v18.15h-7.6v-16.26q0-6.03-4.48-6.03-3.19 0-4.61 2.17-1.42 2.17-1.42 7.02v13.1h-7.59v-38.75h7.59v7.9q0 .92-.17 4.33l-.18 2.24h.4q2.54-4.08 8.07-4.08 4.91 0 7.45 2.64t2.54 7.57Zm13.87 4.18q0 4.13 1.35 6.25 1.36 2.12 4.42 2.12 3.04 0 4.37-2.11 1.34-2.1 1.34-6.26 0-4.13-1.35-6.2-1.34-2.07-4.41-2.07-3.03 0-4.38 2.06-1.34 2.05-1.34 6.21Zm19.25 0q0 6.8-3.59 10.63-3.59 3.84-9.99 3.84-4.01 0-7.07-1.76-3.06-1.75-4.71-5.04-1.64-3.29-1.64-7.67 0-6.82 3.56-10.61 3.56-3.78 10.01-3.78 4.01 0 7.08 1.74 3.06 1.74 4.7 5 1.65 3.27 1.65 7.65Zm13.87-24.78v38.75h-7.6v-38.75h7.6Zm16.78 39.25q-4.91 0-7.71-3.81t-2.8-10.56q0-6.85 2.85-10.67 2.85-3.82 7.86-3.82 5.25 0 8.02 4.08h.25q-.58-3.11-.58-5.55v-8.92h7.62v38.75h-5.82l-1.47-3.61h-.33q-2.59 4.11-7.89 4.11Zm2.66-6.05q2.92 0 4.28-1.7 1.35-1.69 1.48-5.75v-.82q0-4.48-1.38-6.43-1.39-1.94-4.5-1.94-2.54 0-3.95 2.16-1.4 2.15-1.4 6.26 0 4.11 1.42 6.16 1.42 2.06 4.05 2.06Zm32.33-17.41q-2.42 0-3.79 1.53t-1.57 4.35h10.66q-.05-2.82-1.47-4.35-1.42-1.53-3.83-1.53Zm1.07 23.46q-6.72 0-10.51-3.71t-3.79-10.51q0-7 3.5-10.82 3.5-3.82 9.68-3.82 5.9 0 9.19 3.36 3.28 3.36 3.28 9.29v3.68h-17.95q.12 3.24 1.92 5.06 1.79 1.82 5.03 1.82 2.51 0 4.75-.53 2.25-.52 4.69-1.67v5.88q-2 1-4.26 1.48-2.27.49-5.53.49Zm33.07-28.86q1.54 0 2.56.22l-.57 7.12q-.92-.25-2.24-.25-3.64 0-5.67 1.87-2.02 1.87-2.02 5.23v14.17h-7.6v-27.84h5.75l1.12 4.68h.38q1.29-2.34 3.5-3.77 2.2-1.43 4.79-1.43Z"/></svg>